<svg id="Capa_1" data-name="Capa 1" xmlns="http://www.w3.org/2000/svg" viewBox="0 0 1025.02 1020.37"><path d="M1022.54,688.13c.26,26-10.15,45.52-27.3,62.57Q887.66,857.64,780.63,965.1C768.21,977.52,756.19,990.43,743,1002c-29.26,25.51-73.94,24.39-101.76-2.61-28.31-27.49-55.92-55.71-83.84-83.6q-67.32-67.25-134.64-134.5-113.05-113.06-226-226.16Q111.45,469.83,26.17,384.6C2.33,360.67-4.21,328.34,9.25,298.22a82.68,82.68,0,0,1,16.43-23.84q95-95.82,190.59-191,29.82-29.83,59.65-59.64c31.29-31.33,79-31.8,110.39-.54Q472,108.4,557.22,194,663.68,300.47,770.17,406.89,885.1,521.82,1000,636.79A75.31,75.31,0,0,1,1022.54,688.13ZM31.5,329.07c1,5,1.85,10,3.2,14.89,3.46,12.47,13,20.66,21.57,29.37C70.11,387.39,84.36,401.05,98.34,415c16.29,16.24,32.44,32.62,48.71,48.88q48.48,48.43,97,96.8Q296.41,613,348.67,665.37,366.22,683,383.79,700.5q41.54,41.49,83.07,83,48.63,48.63,97.23,97.27,43.83,43.85,87.66,87.7c7.18,7.19,13.87,14.75,23.83,18.63a48.41,48.41,0,0,0,51.82-10.62q45.47-45.63,91.09-91.1,79.39-79.46,158.76-158.94c21.07-21.09,21-49.56,0-70.57Q899.58,578.3,822,500.66,751.21,429.83,680.42,359,571.46,250,462.47,141.14q-48-48-95.86-96C345.8,24.4,317.55,24.3,296.7,45q-41.16,40.85-82,82-84.21,84.2-168.4,168.41C37.05,304.58,32.31,315.84,31.5,329.07Z"/><path d="M596.81,50.85c-2.42-11.58-4.78-22.94-7.32-35.13,86.15-14.36,165.68,1.27,237.22,51,98,68.18,149,184.4,130.22,307.79l68.09,8.77L924.87,515c-21.42-51.08-42.57-101.49-64-152.59L921.25,370c12.76-94.45-11.78-176.67-79.64-243.56S691,36.84,596.81,50.85Z"/><path d="M427.79,969.26a14,14,0,0,1,.83,2.08q3.44,16.14,6.82,32.28c-75.44,17.51-192.8,1-276.65-82.91-76.14-76.15-104.92-168.43-90.87-275L0,637.05,100.24,505.32c21.4,51,42.53,101.38,64,152.46-7.22-.81-13.77-1.47-20.31-2.3-12.19-1.55-24.38-3.11-36.55-4.86-3.74-.54-3.78,1.74-4.09,4.22C99.3,685.77,99,716.65,105,747.36c14.37,72.46,51.23,130.77,110.91,174.3,36.66,26.75,77.82,42.65,122.75,49.17A277.11,277.11,0,0,0,425,969.51C425.82,969.38,426.62,969.37,427.79,969.26Z"/></svg>