<svg id="Capa_1" data-name="Capa 1" xmlns="http://www.w3.org/2000/svg" viewBox="0 0 500 726"><defs><style>.cls-1{fill:#fff;}.cls-2{fill:#a0c8d7;}.cls-2,.cls-3,.cls-4{stroke:#333;stroke-linecap:round;stroke-linejoin:round;stroke-width:7px;}.cls-3{fill:#f8b26a;}.cls-4{fill:#e0e0e0;}.cls-5{fill:#666;}</style></defs><rect class="cls-1" width="500" height="726" rx="23.39"/><path class="cls-2" d="M165,245.94l-28.35-39a193.25,193.25,0,0,0-70.12,96.45l45.88,14.9A144.91,144.91,0,0,1,165,245.94Z"/><path class="cls-3" d="M250,218.28h0V170h0a192,192,0,0,0-113.4,36.88l28.35,39A144,144,0,0,1,250,218.28Z"/><path class="cls-3" d="M387.64,318.28l45.88-14.91a193.33,193.33,0,0,0-70.12-96.45l-28.35,39A144.94,144.94,0,0,1,387.64,318.28Z"/><path class="cls-2" d="M335.05,245.94l28.35-39A192,192,0,0,0,250,170v48.24A144,144,0,0,1,335.05,245.94Z"/><path class="cls-2" d="M394.72,363a144.63,144.63,0,0,1-7.08,44.72l45.88,14.91a193.05,193.05,0,0,0,0-119.26l-45.88,14.91A144.76,144.76,0,0,1,394.72,363Z"/><path class="cls-3" d="M105.28,363a144.59,144.59,0,0,1,7.08-44.72L66.48,303.37a193.05,193.05,0,0,0,0,119.26l45.88-14.91A144.76,144.76,0,0,1,105.28,363Z"/><path class="cls-2" d="M112.36,407.72,66.48,422.63a193.33,193.33,0,0,0,70.12,96.45l28.35-39A144.94,144.94,0,0,1,112.36,407.72Z"/><path class="cls-3" d="M433.52,422.63l-45.88-14.91a144.94,144.94,0,0,1-52.59,72.34l28.35,39a193.21,193.21,0,0,0,70.12-96.45Z"/><path class="cls-2" d="M250,507.72V556a192,192,0,0,0,113.4-36.88l-28.35-39A144,144,0,0,1,250,507.72Z"/><path class="cls-3" d="M250,507.72A144,144,0,0,1,165,480.06l-28.35,39A192,192,0,0,0,250,556h0V507.72Z"/><path class="cls-4" d="M387.64,318.28A144.83,144.83,0,0,0,250,218.28h0a144.72,144.72,0,0,0,0,289.44h0A144.73,144.73,0,0,0,387.64,318.28Z"/><path class="cls-5" d="M250,289.39s-72.36,47.85-72.36,87.82v.47a36.18,36.18,0,0,0,36.18,36.18c9.52,0,16.06-3.94,22.09-9.92a2.33,2.33,0,0,1,3.87,2.4l-10.49,30.27H270.7l-10.49-30.27a2.33,2.33,0,0,1,3.87-2.4c6,6,12.58,9.92,22.09,9.92a36.18,36.18,0,0,0,36.18-36.18v-.47C322.36,337.24,250,289.39,250,289.39Z"/></svg>